<?xml version="1.0" encoding="utf-8"?>
<!-- Generator: Adobe Illustrator 22.0.1, SVG Export Plug-In . SVG Version: 6.00 Build 0)  -->
<svg version="1.1" id="Слой_1" xmlns="http://www.w3.org/2000/svg" xmlns:xlink="http://www.w3.org/1999/xlink" x="0px" y="0px"
	 viewBox="0 0 1000 1000" style="enable-background:new 0 0 1000 1000;" xml:space="preserve">
<style type="text/css">
	.st0{fill:#FFFFFF;}
</style>
<g>
	<g transform="translate(0.000000,511.000000) scale(0.100000,-0.100000)">
		<path class="st0" d="M4194.1,4961.9C3119,4769,2217.8,4294.7,1474.7,3523.1C756.9,2780,323.7,1926.3,149.8,905
			C89.7,557.1,83.4-204.9,134-571.7C431.2-2725,2164-4457.8,4317.4-4755.1c316.2-44.2,1049.8-44.2,1366,0
			c1710.7,237.2,3212.7,1404,3860.9,3000.8c151.8,379.5,271.9,809.5,322.5,1182.6c44.2,316.2,44.2,1049.8,0,1366
			C9629.7,2514.4,8447,4025.9,6840.7,4664.6c-366.8,148.6-796.8,262.4-1157.3,313C5341.9,5025.1,4500.8,5015.6,4194.1,4961.9z
			 M5879.4,4177.7l230.8-56.9l-347.8-670.3c-192.9-370-404.7-781-474.3-917c-154.9-306.7-180.2-335.2-287.7-335.2
			c-101.2,0-145.5,47.4-281.4,316.2c-56.9,113.8-265.6,512.3-464.8,888.5c-199.2,373.1-360.5,689.3-360.5,702
			c0,15.8,281.4,82.2,537.5,129.6c44.3,6.3,335.2,9.5,648.2,6.3C5487.3,4234.6,5711.9,4215.6,5879.4,4177.7z M3941.1,3077.3
			c373.1-939.1,433.2-1157.3,366.8-1328.1c-19-50.6-139.1-167.6-290.9-278.3c-290.9-211.9-420.5-240.3-629.2-129.6
			C3255,1414,1746.7,2644.1,1746.7,2685.2c-6.3,56.9,578.6,619.8,828.4,800c246.7,177.1,875.9,515.4,958.1,515.4
			C3555.3,4000.6,3732.4,3599,3941.1,3077.3z M6837.5,3836.2c183.4-91.7,445.9-249.8,588.2-351c246.6-180.2,831.6-743.1,831.6-803.2
			c0-41.1-1464-1245.8-1619-1328.1c-208.7-113.8-328.9-98-581.8,82.2c-490.1,344.7-490.1,347.8-44.3,1473.5
			c177.1,452.2,344.6,882.2,370,958.1c25.3,72.7,63.2,132.8,85.4,132.8C6489.7,4000.6,6657.3,3924.7,6837.5,3836.2z M2246.2,1622.7
			c420.6-433.2,698.8-743.1,698.8-777.9c0-34.8-25.3-94.9-56.9-132.8c-47.4-60.1-180.2-91.7-1034-240.3
			C1313.4,380.1,867.6,301,861.3,301s-3.2,113.8,9.5,249.8c25.3,303.6,132.8,749.4,268.8,1094.1
			c113.8,294.1,344.7,720.9,379.4,705.1C1534.8,2343.7,1860.5,2018,2246.2,1622.7z M8671.5,2055.9
			c180.2-338.3,354.2-844.3,423.7-1230c41.1-243.5,63.2-524.9,41.1-524.9c-6.3,0-449,79.1-989.7,170.7
			c-856.9,148.6-983.4,180.2-1034,240.3c-31.6,38-56.9,98-56.9,129.6c0,66.4,1388.2,1517.8,1435.6,1502
			C8507.1,2340.5,8589.3,2210.9,8671.5,2055.9z M5104.7,1243.3c101.2-50.6,145.4-123.3,148.6-224.5c0-120.2-126.5-243.5-253-243.5
			c-189.7,0-325.7,246.6-211.9,385.8C4877.1,1271.8,4994.1,1303.4,5104.7,1243.3z M4190.9,455.9c63.2-50.6,82.2-91.7,82.2-186.6
			c0-221.3-227.7-325.7-398.4-180.2c-110.7,98-117,243.5-12.6,354.1C3953.8,541.3,4077.1,544.5,4190.9,455.9z M5158.5,471.8
			c347.8-139.1,332-645-25.3-771.5c-487-167.6-774.7,547-306.7,762.1C4981.4,535,5000.4,535,5158.5,471.8z M6138.7,443.3
			c101.2-107.5,94.9-262.4-15.8-354.1c-104.3-91.7-205.5-91.7-313.1-6.3c-63.2,50.6-82.2,91.7-82.2,186.6
			C5727.7,493.9,5987,604.6,6138.7,443.3z M3052.6,13.3c177.1-47.4,249.8-148.6,351-474.3c107.5-347.8,85.4-471.1-107.5-635.6
			c-126.5-107.5-1669.6-1094.1-1726.5-1103.6c-44.3-6.3-319.4,487-430,777.9c-136,347.8-243.5,790.5-268.8,1094.1
			c-12.6,136-15.8,249.8-9.5,253c37.9,9.5,1688.5,113.8,1862.4,120.1C2837.6,44.9,2983,32.2,3052.6,13.3z M8115,0.6
			c487-28.5,920.1-60.1,961.3-66.4c72.7-15.8,75.9-19,53.7-265.6c-25.3-313.1-139.1-771.6-278.3-1116.2
			c-117-290.9-370-749.4-411.1-749.4c-69.6,0-1606.3,1008.7-1739.1,1138.3c-183.4,180.2-192.9,268.8-69.6,648.2
			c91.7,281.4,167.6,382.6,309.9,423.7C7084.2,54.4,7144.3,54.4,8115,0.6z M4636.8-631.8c132.8-129.7,94.9-322.5-79-395.3
			C4387.1-1096.7,4210-967,4210-771c0,98,139.1,218.2,253,218.2C4522.9-552.7,4589.3-581.2,4636.8-631.8z M5813.1-622.3
			c148.6-139.1,41.1-436.4-158.1-436.4c-101.2,0-230.8,104.3-256.1,205.5c-22.1,85.4,47.4,253,113.9,278.3
			C5610.7-533.8,5743.5-555.9,5813.1-622.3z M3729.2-1691.1c38-37.9,69.6-82.2,69.6-104.3c3.2-79.1-259.3-1875.1-278.3-1928.9
			c-19-50.6-56.9-37.9-357.3,110.7c-430,218.2-768.4,461.7-1119.4,815.8l-281.4,281.4l901.2,442.7
			c493.3,246.7,920.2,445.9,948.6,445.9C3637.6-1627.8,3691.3-1656.3,3729.2-1691.1z M7330.8-2070.5l907.5-442.7l-281.4-284.6
			c-158.1-158.1-398.4-366.8-534.4-468c-281.4-199.2-904.3-528.1-936-490.1c-22.1,25.3-284.6,1834-284.6,1944.7
			c0,63.2,120.1,183.4,180.2,183.4C6404.3-1627.8,6831.2-1827,7330.8-2070.5z M5411.5-1779.6c69.6-34.8,132.8-104.4,177.1-196.1
			c56.9-117,518.6-1805.6,518.6-1897.2c0-15.8-110.7-53.8-243.5-85.4c-351-82.2-1375.5-82.2-1723.3,0
			c-151.8,34.8-246.6,72.7-246.6,98c0,113.9,487,1846.7,543.9,1941.5c94.9,151.8,211.8,192.9,562.8,196.1
			C5224.9-1722.7,5329.2-1735.4,5411.5-1779.6z"/>
	</g>
</g>
</svg>
